<svg xmlns="http://www.w3.org/2000/svg" viewBox="0 0 300 280" width="32" height="32" shape-rendering="crispEdges"><polygon points="147,105 110,68 55,48" fill="#0d5822" stroke="#0d5822" stroke-width="0.5"/><polygon points="147,105 55,48 20,72" fill="#00c638" stroke="#00c638" stroke-width="0.5"/><polygon points="147,105 20,72 15,108" fill="#137b30" stroke="#137b30" stroke-width="0.5"/><polygon points="147,130 147,105 15,108" fill="#00c638" stroke="#00c638" stroke-width="0.5"/><polygon points="147,130 15,108 28,150" fill="#0d5822" stroke="#0d5822" stroke-width="0.5"/><polygon points="147,165 147,130 28,150" fill="#00c638" stroke="#00c638" stroke-width="0.5"/><polygon points="147,165 28,150 50,178" fill="#137b30" stroke="#137b30" stroke-width="0.5"/><polygon points="147,178 50,178 82,195" fill="#0d5822" stroke="#0d5822" stroke-width="0.5"/><polygon points="147,178 82,195 75,220" fill="#00c638" stroke="#00c638" stroke-width="0.5"/><polygon points="147,195 75,220 100,240" fill="#137b30" stroke="#137b30" stroke-width="0.5"/><polygon points="147,195 100,240 135,232" fill="#0d5822" stroke="#0d5822" stroke-width="0.5"/><polygon points="153,105 190,68 245,48" fill="#0d5822" stroke="#0d5822" stroke-width="0.5"/><polygon points="153,105 245,48 280,72" fill="#00c638" stroke="#00c638" stroke-width="0.5"/><polygon points="153,105 280,72 285,108" fill="#137b30" stroke="#137b30" stroke-width="0.5"/><polygon points="153,130 153,105 285,108" fill="#00c638" stroke="#00c638" stroke-width="0.5"/><polygon points="153,130 285,108 272,150" fill="#0d5822" stroke="#0d5822" stroke-width="0.5"/><polygon points="153,165 153,130 272,150" fill="#00c638" stroke="#00c638" stroke-width="0.5"/><polygon points="153,165 272,150 250,178" fill="#0d5822" stroke="#0d5822" stroke-width="0.5"/><polygon points="153,178 250,178 218,195" fill="#137b30" stroke="#137b30" stroke-width="0.5"/><polygon points="153,178 218,195 225,220" fill="#00c638" stroke="#00c638" stroke-width="0.5"/><polygon points="153,195 225,220 200,240" fill="#137b30" stroke="#137b30" stroke-width="0.5"/><polygon points="153,195 200,240 165,232" fill="#0d5822" stroke="#0d5822" stroke-width="0.5"/><path d="M150,92 C158,120 158,150 150,200 C142,150 142,120 150,92Z" fill="#0d5822"/><path d="M150,86 C146,72 140,55 136,42" fill="none" stroke="#0d5822" stroke-width="1.8" opacity="0.7"/><path d="M150,86 C154,72 160,55 164,42" fill="none" stroke="#0d5822" stroke-width="1.8" opacity="0.7"/><circle cx="136" cy="41" r="3.5" fill="#00c638"/><circle cx="164" cy="41" r="3.5" fill="#00c638"/><polygon points="150,77 154,86 163,90 154,94 150,103 146,94 137,90 146,86" fill="#e26c45" stroke="#e26c45" stroke-width="0.8" stroke-linejoin="round"/></svg>
